<svg width="226" height="54" viewBox="0 0 226 54" fill="none" xmlns="http://www.w3.org/2000/svg">
<path d="M53.548 30.064C53.548 28.048 53.956 26.284 54.772 24.772C55.588 23.236 56.704 22.048 58.12 21.208C59.56 20.368 61.156 19.948 62.908 19.948C64.636 19.948 66.136 20.32 67.408 21.064C68.68 21.808 69.628 22.744 70.252 23.872V20.272H73.564V40H70.252V36.328C69.604 37.48 68.632 38.44 67.336 39.208C66.064 39.952 64.576 40.324 62.872 40.324C61.12 40.324 59.536 39.892 58.12 39.028C56.704 38.164 55.588 36.952 54.772 35.392C53.956 33.832 53.548 32.056 53.548 30.064ZM70.252 30.1C70.252 28.612 69.952 27.316 69.352 26.212C68.752 25.108 67.936 24.268 66.904 23.692C65.896 23.092 64.78 22.792 63.556 22.792C62.332 22.792 61.216 23.08 60.208 23.656C59.2 24.232 58.396 25.072 57.796 26.176C57.196 27.28 56.896 28.576 56.896 30.064C56.896 31.576 57.196 32.896 57.796 34.024C58.396 35.128 59.2 35.98 60.208 36.58C61.216 37.156 62.332 37.444 63.556 37.444C64.78 37.444 65.896 37.156 66.904 36.58C67.936 35.98 68.752 35.128 69.352 34.024C69.952 32.896 70.252 31.588 70.252 30.1ZM82.3761 13.36V40H79.1001V13.36H82.3761ZM111.684 19.912C113.22 19.912 114.588 20.236 115.788 20.884C116.988 21.508 117.936 22.456 118.632 23.728C119.328 25 119.676 26.548 119.676 28.372V40H116.436V28.84C116.436 26.872 115.944 25.372 114.96 24.34C114 23.284 112.692 22.756 111.036 22.756C109.332 22.756 107.976 23.308 106.968 24.412C105.96 25.492 105.456 27.064 105.456 29.128V40H102.216V28.84C102.216 26.872 101.724 25.372 100.74 24.34C99.7795 23.284 98.4715 22.756 96.8155 22.756C95.1115 22.756 93.7555 23.308 92.7475 24.412C91.7395 25.492 91.2355 27.064 91.2355 29.128V40H87.9595V20.272H91.2355V23.116C91.8835 22.084 92.7475 21.292 93.8275 20.74C94.9315 20.188 96.1435 19.912 97.4635 19.912C99.1195 19.912 100.584 20.284 101.856 21.028C103.128 21.772 104.076 22.864 104.7 24.304C105.252 22.912 106.164 21.832 107.436 21.064C108.708 20.296 110.124 19.912 111.684 19.912ZM133.653 40.324C131.805 40.324 130.125 39.904 128.613 39.064C127.125 38.224 125.949 37.036 125.085 35.5C124.245 33.94 123.825 32.14 123.825 30.1C123.825 28.084 124.257 26.308 125.121 24.772C126.009 23.212 127.209 22.024 128.721 21.208C130.233 20.368 131.925 19.948 133.797 19.948C135.669 19.948 137.361 20.368 138.873 21.208C140.385 22.024 141.573 23.2 142.437 24.736C143.325 26.272 143.769 28.06 143.769 30.1C143.769 32.14 143.313 33.94 142.401 35.5C141.513 37.036 140.301 38.224 138.765 39.064C137.229 39.904 135.525 40.324 133.653 40.324ZM133.653 37.444C134.829 37.444 135.933 37.168 136.965 36.616C137.997 36.064 138.825 35.236 139.449 34.132C140.097 33.028 140.421 31.684 140.421 30.1C140.421 28.516 140.109 27.172 139.485 26.068C138.861 24.964 138.045 24.148 137.037 23.62C136.029 23.068 134.937 22.792 133.761 22.792C132.561 22.792 131.457 23.068 130.449 23.62C129.465 24.148 128.673 24.964 128.073 26.068C127.473 27.172 127.173 28.516 127.173 30.1C127.173 31.708 127.461 33.064 128.037 34.168C128.637 35.272 129.429 36.1 130.413 36.652C131.397 37.18 132.477 37.444 133.653 37.444ZM152.073 22.972V34.6C152.073 35.56 152.277 36.244 152.685 36.652C153.093 37.036 153.801 37.228 154.809 37.228H157.221V40H154.269C152.445 40 151.077 39.58 150.165 38.74C149.253 37.9 148.797 36.52 148.797 34.6V22.972H146.241V20.272H148.797V15.304H152.073V20.272H157.221V22.972H152.073ZM179.19 29.38C179.19 30.004 179.154 30.664 179.082 31.36H163.314C163.434 33.304 164.094 34.828 165.294 35.932C166.518 37.012 167.994 37.552 169.722 37.552C171.138 37.552 172.314 37.228 173.25 36.58C174.21 35.908 174.882 35.02 175.266 33.916H178.794C178.266 35.812 177.21 37.36 175.626 38.56C174.042 39.736 172.074 40.324 169.722 40.324C167.85 40.324 166.17 39.904 164.682 39.064C163.218 38.224 162.066 37.036 161.226 35.5C160.386 33.94 159.966 32.14 159.966 30.1C159.966 28.06 160.374 26.272 161.19 24.736C162.006 23.2 163.146 22.024 164.61 21.208C166.098 20.368 167.802 19.948 169.722 19.948C171.594 19.948 173.25 20.356 174.69 21.172C176.13 21.988 177.234 23.116 178.002 24.556C178.794 25.972 179.19 27.58 179.19 29.38ZM175.806 28.696C175.806 27.448 175.53 26.38 174.978 25.492C174.426 24.58 173.67 23.896 172.71 23.44C171.774 22.96 170.73 22.72 169.578 22.72C167.922 22.72 166.506 23.248 165.33 24.304C164.178 25.36 163.518 26.824 163.35 28.696H175.806ZM182.29 30.1C182.29 28.06 182.698 26.284 183.514 24.772C184.33 23.236 185.458 22.048 186.898 21.208C188.362 20.368 190.03 19.948 191.902 19.948C194.326 19.948 196.318 20.536 197.878 21.712C199.462 22.888 200.506 24.52 201.01 26.608H197.482C197.146 25.408 196.486 24.46 195.502 23.764C194.542 23.068 193.342 22.72 191.902 22.72C190.03 22.72 188.518 23.368 187.366 24.664C186.214 25.936 185.638 27.748 185.638 30.1C185.638 32.476 186.214 34.312 187.366 35.608C188.518 36.904 190.03 37.552 191.902 37.552C193.342 37.552 194.542 37.216 195.502 36.544C196.462 35.872 197.122 34.912 197.482 33.664H201.01C200.482 35.68 199.426 37.3 197.842 38.524C196.258 39.724 194.278 40.324 191.902 40.324C190.03 40.324 188.362 39.904 186.898 39.064C185.458 38.224 184.33 37.036 183.514 35.5C182.698 33.964 182.29 32.164 182.29 30.1ZM215.173 19.912C216.661 19.912 218.005 20.236 219.205 20.884C220.405 21.508 221.341 22.456 222.013 23.728C222.709 25 223.057 26.548 223.057 28.372V40H219.817V28.84C219.817 26.872 219.325 25.372 218.341 24.34C217.357 23.284 216.013 22.756 214.309 22.756C212.581 22.756 211.201 23.296 210.169 24.376C209.161 25.456 208.657 27.028 208.657 29.092V40H205.381V13.36H208.657V23.08C209.305 22.072 210.193 21.292 211.321 20.74C212.473 20.188 213.757 19.912 215.173 19.912Z" fill="url(#paint0_linear_162_274)"/>
<path d="M43.9313 37.723C43.8055 37.0321 43.4352 36.4122 42.8904 35.9806C42.4514 35.6774 41.9406 35.4993 41.4112 35.4648C40.3369 35.3029 39.2503 35.2423 38.165 35.2836L35.727 35.2V22.2224C35.723 22.1574 35.723 22.0922 35.727 22.0272C35.7375 21.8229 35.7375 21.6182 35.727 21.4139C35.6631 20.7036 35.5065 20.0052 35.2613 19.337C34.7066 17.7334 33.6412 16.3645 32.2344 15.4479C31.1166 14.7468 29.8352 14.3619 28.5225 14.3327H15.2367C14.9449 14.3291 14.6662 14.2085 14.4611 13.9971C14.256 13.7858 14.141 13.5007 14.141 13.2036V7.6279C14.099 7.05323 13.8905 6.50412 13.5419 6.05006C13.1933 5.596 12.7201 5.25736 12.1824 5.07697C11.579 4.9252 10.9421 4.99941 10.3881 5.28605C9.98373 5.55045 9.64807 5.9103 9.40961 6.33499C9.17116 6.75968 9.03695 7.23667 9.01842 7.72544V14.3466H2.95078C2.36958 14.3716 1.8064 14.5592 1.32313 14.8887C0.839851 15.2183 0.455191 15.677 0.211437 16.2145C-0.0389252 16.8887 -0.0677573 17.6272 0.12926 18.3194C0.16202 18.4475 0.203198 18.5733 0.252526 18.6958C0.464403 19.2278 0.826681 19.6838 1.29347 20.006C1.77822 20.3273 2.34489 20.497 2.92338 20.4939H7.97747C8.24397 20.4901 8.50118 20.5934 8.69345 20.7812C8.88571 20.9691 8.99755 21.2264 9.00473 21.4975V21.4975L8.89515 33.6108C8.9133 35.202 9.42105 36.7474 10.347 38.0296C10.9144 38.7229 11.5736 39.3328 12.3056 39.8417C12.804 40.2206 13.3413 40.5431 13.9082 40.8036C14.4186 41.0152 14.9454 41.183 15.4833 41.3054C15.8585 41.4116 16.2446 41.4724 16.6338 41.4866H17.2228C18.3185 41.4866 23.6602 41.3472 27.8514 41.4866L30.2757 41.5981V46.5466C30.1957 47.0973 30.2672 47.6599 30.4824 48.1717C30.6976 48.6836 31.048 49.1246 31.4947 49.446C31.939 49.7779 32.4694 49.9694 33.0198 49.9966C33.5702 50.0239 34.1164 49.8857 34.5902 49.5993C35.0402 49.3073 35.3965 48.8879 35.6155 48.3927C35.8345 47.8974 35.9066 47.3478 35.8229 46.8114C35.8229 45.6963 35.8229 44.5812 35.8914 43.4381C35.8914 42.7551 35.8914 42.0442 35.8914 41.4029H36.8912L41.1235 41.3054C41.6138 41.2808 42.0921 41.1425 42.5218 40.9009C42.9515 40.6592 43.3212 40.3208 43.6026 39.9115C43.9724 39.2478 44.0894 38.4688 43.9313 37.723V37.723ZM30.2346 35.2418H18.4281C18.1596 35.24 17.8926 35.2025 17.6337 35.1302C17.2898 35.1077 16.952 35.0276 16.6338 34.8933C16.1849 34.7033 15.7785 34.4225 15.4395 34.0678C15.1005 33.7132 14.8358 33.2922 14.6615 32.8302L14.5793 32.5933C14.4271 32.1786 14.3482 31.7396 14.3464 31.2969V20.4521H27.4679C27.6896 20.4528 27.9103 20.4809 28.1254 20.5357H28.2349L28.3719 20.6054H28.5225H28.6321C29.0973 20.7423 29.5057 21.0303 29.795 21.4254C30.0844 21.8205 30.2387 22.3011 30.2346 22.7939V35.2418Z" fill="url(#paint1_linear_162_274)"/>
<defs>
<linearGradient id="paint0_linear_162_274" x1="39.9538" y1="7.85453" x2="429.352" y2="64.4618" gradientUnits="userSpaceOnUse">
<stop stop-color="#26B262"/>
<stop offset="1" stop-color="#006E9D"/>
</linearGradient>
<linearGradient id="paint1_linear_162_274" x1="-0.0898885" y1="27.5472" x2="44.0683" y2="27.5472" gradientUnits="userSpaceOnUse">
<stop stop-color="#26B262"/>
<stop offset="1" stop-color="#006E9D"/>
</linearGradient>
</defs>
</svg>
