<svg width="143" height="48" viewBox="0 0 143 48" fill="none" xmlns="http://www.w3.org/2000/svg">
<g clip-path="url(#clip0_379_4256)">
<path fill-rule="evenodd" clip-rule="evenodd" d="M33 7.69412C33 6.75848 32.2423 6 31.3077 6H16.5C15.5654 6 14.8077 6.75848 14.8077 7.69412V11.0824C14.8077 12.018 14.05 12.7765 13.1154 12.7765H7.61538C6.68077 12.7765 5.92308 13.535 5.92308 14.4706V17.4353C5.92308 18.3709 5.16539 19.1294 4.23077 19.1294H1.69231C0.757671 19.1294 0 19.8879 0 20.8235V21.2471V26.7529V27.1765C0 28.1121 0.757671 28.8706 1.69231 28.8706H4.23077C5.16539 28.8706 5.92308 29.6291 5.92308 30.5647V33.5294C5.92308 34.465 6.68077 35.2235 7.61538 35.2235H13.1154C14.05 35.2235 14.8077 35.982 14.8077 36.9176V40.3059C14.8077 41.2415 15.5654 42 16.5 42H31.3077C32.2423 42 33 41.2415 33 40.3059V36.9176C33 35.982 32.2423 35.2235 31.3077 35.2235H25.8077C24.8731 35.2235 24.1154 34.465 24.1154 33.5294V30.1412C24.1154 29.2056 23.3577 28.4471 22.4231 28.4471H13.9615C13.0269 28.4471 12.2692 27.6886 12.2692 26.7529V21.2471C12.2692 20.3114 13.0269 19.5529 13.9615 19.5529H22.4231C23.3577 19.5529 24.1154 18.7944 24.1154 17.8588V14.4706C24.1154 13.535 24.8731 12.7765 25.8077 12.7765H31.3077C32.2423 12.7765 33 12.018 33 11.0824V7.69412Z" fill="#09DE70"/>
</g>
<path d="M49.0003 30.342C47.8123 30.342 46.7923 30.132 45.9403 29.712C45.0883 29.292 44.3923 28.746 43.8523 28.074C43.3243 27.402 42.9343 26.67 42.6823 25.878C42.4303 25.086 42.3043 24.324 42.3043 23.592V23.196C42.3043 22.38 42.4303 21.576 42.6823 20.784C42.9463 19.992 43.3483 19.272 43.8883 18.624C44.4283 17.976 45.1123 17.46 45.9403 17.076C46.7803 16.68 47.7703 16.482 48.9103 16.482C50.0983 16.482 51.1303 16.698 52.0063 17.13C52.8943 17.55 53.6023 18.15 54.1303 18.93C54.6583 19.698 54.9763 20.598 55.0843 21.63H52.5103C52.4143 21.03 52.1983 20.526 51.8623 20.118C51.5383 19.698 51.1243 19.386 50.6203 19.182C50.1163 18.966 49.5463 18.858 48.9103 18.858C48.2623 18.858 47.6863 18.972 47.1823 19.2C46.6783 19.416 46.2583 19.728 45.9223 20.136C45.5863 20.544 45.3283 21.024 45.1483 21.576C44.9803 22.128 44.8963 22.74 44.8963 23.412C44.8963 24.06 44.9803 24.66 45.1483 25.212C45.3283 25.764 45.5923 26.25 45.9403 26.67C46.2883 27.078 46.7143 27.396 47.2183 27.624C47.7343 27.852 48.3283 27.966 49.0003 27.966C49.9843 27.966 50.8123 27.726 51.4843 27.246C52.1683 26.754 52.5823 26.07 52.7263 25.194H55.3003C55.1803 26.13 54.8623 26.988 54.3463 27.768C53.8303 28.548 53.1223 29.172 52.2223 29.64C51.3223 30.108 50.2483 30.342 49.0003 30.342ZM56.7192 30V20.226H58.6992V24.366H58.6452C58.6452 22.962 58.9452 21.9 59.5452 21.18C60.1452 20.46 61.0272 20.1 62.1912 20.1H62.5512V22.278H61.8672C61.0272 22.278 60.3732 22.506 59.9052 22.962C59.4492 23.406 59.2212 24.054 59.2212 24.906V30H56.7192ZM68.3128 30.342C67.4488 30.342 66.6868 30.204 66.0268 29.928C65.3668 29.652 64.8088 29.28 64.3528 28.812C63.8968 28.332 63.5488 27.792 63.3088 27.192C63.0808 26.592 62.9668 25.968 62.9668 25.32V24.942C62.9668 24.27 63.0868 23.634 63.3268 23.034C63.5788 22.422 63.9328 21.882 64.3888 21.414C64.8568 20.934 65.4208 20.562 66.0808 20.298C66.7408 20.022 67.4848 19.884 68.3128 19.884C69.1408 19.884 69.8848 20.022 70.5448 20.298C71.2048 20.562 71.7628 20.934 72.2188 21.414C72.6868 21.882 73.0408 22.422 73.2808 23.034C73.5208 23.634 73.6408 24.27 73.6408 24.942V25.32C73.6408 25.968 73.5208 26.592 73.2808 27.192C73.0528 27.792 72.7108 28.332 72.2548 28.812C71.7988 29.28 71.2408 29.652 70.5808 29.928C69.9208 30.204 69.1648 30.342 68.3128 30.342ZM68.3128 28.2C68.9248 28.2 69.4408 28.068 69.8608 27.804C70.2808 27.528 70.5988 27.162 70.8148 26.706C71.0308 26.238 71.1388 25.71 71.1388 25.122C71.1388 24.522 71.0248 23.994 70.7968 23.538C70.5808 23.07 70.2568 22.704 69.8248 22.44C69.4048 22.164 68.9008 22.026 68.3128 22.026C67.7248 22.026 67.2148 22.164 66.7828 22.44C66.3628 22.704 66.0388 23.07 65.8108 23.538C65.5828 23.994 65.4688 24.522 65.4688 25.122C65.4688 25.71 65.5768 26.238 65.7928 26.706C66.0208 27.162 66.3448 27.528 66.7648 27.804C67.1848 28.068 67.7008 28.2 68.3128 28.2ZM78.4286 30L80.2826 20.55H83.1626L85.3046 30H83.3246L81.1466 20.604H82.1906L80.2646 30H78.4286ZM77.6906 30L77.6726 27.948H79.6706V30H77.6906ZM76.6826 30L74.0186 20.226H76.4486L78.9866 30H76.6826ZM83.9546 30V27.948H85.9526L85.9346 30H83.9546ZM84.7466 30L86.9966 20.226H89.2646L86.9066 30H84.7466ZM94.534 30.324C93.85 30.324 93.22 30.198 92.644 29.946C92.068 29.694 91.57 29.34 91.15 28.884C90.73 28.428 90.406 27.9 90.178 27.3C89.95 26.688 89.836 26.028 89.836 25.32V24.942C89.836 24.246 89.944 23.592 90.16 22.98C90.388 22.368 90.7 21.834 91.096 21.378C91.504 20.922 91.99 20.568 92.554 20.316C93.13 20.052 93.766 19.92 94.462 19.92C95.23 19.92 95.902 20.088 96.478 20.424C97.066 20.748 97.534 21.24 97.882 21.9C98.23 22.56 98.422 23.388 98.458 24.384L97.72 23.52V16.86H100.222V30H98.242V25.842H98.674C98.638 26.838 98.434 27.672 98.062 28.344C97.69 29.004 97.198 29.502 96.586 29.838C95.986 30.162 95.302 30.324 94.534 30.324ZM95.092 28.218C95.584 28.218 96.034 28.11 96.442 27.894C96.85 27.666 97.174 27.342 97.414 26.922C97.666 26.49 97.792 25.986 97.792 25.41V24.69C97.792 24.114 97.666 23.634 97.414 23.25C97.162 22.854 96.832 22.554 96.424 22.35C96.016 22.134 95.572 22.026 95.092 22.026C94.552 22.026 94.072 22.158 93.652 22.422C93.244 22.674 92.92 23.034 92.68 23.502C92.452 23.97 92.338 24.516 92.338 25.14C92.338 25.764 92.458 26.31 92.698 26.778C92.938 27.234 93.262 27.588 93.67 27.84C94.09 28.092 94.564 28.218 95.092 28.218ZM106.868 30.342C106.016 30.342 105.278 30.198 104.654 29.91C104.042 29.622 103.526 29.238 103.106 28.758C102.698 28.278 102.392 27.738 102.188 27.138C101.984 26.538 101.882 25.926 101.882 25.302V24.96C101.882 24.3 101.984 23.67 102.188 23.07C102.404 22.458 102.722 21.918 103.142 21.45C103.562 20.97 104.078 20.592 104.69 20.316C105.314 20.028 106.034 19.884 106.85 19.884C107.702 19.884 108.464 20.052 109.136 20.388C109.808 20.712 110.342 21.168 110.738 21.756C111.146 22.344 111.374 23.028 111.422 23.808H108.992C108.932 23.304 108.716 22.884 108.344 22.548C107.984 22.212 107.486 22.044 106.85 22.044C106.298 22.044 105.836 22.176 105.464 22.44C105.104 22.704 104.834 23.07 104.654 23.538C104.474 23.994 104.384 24.522 104.384 25.122C104.384 25.698 104.468 26.22 104.636 26.688C104.816 27.156 105.086 27.522 105.446 27.786C105.818 28.05 106.292 28.182 106.868 28.182C107.3 28.182 107.672 28.104 107.984 27.948C108.296 27.792 108.542 27.576 108.722 27.3C108.914 27.024 109.034 26.712 109.082 26.364H111.512C111.464 27.156 111.23 27.852 110.81 28.452C110.402 29.04 109.856 29.502 109.172 29.838C108.5 30.174 107.732 30.342 106.868 30.342ZM112.976 30V20.226H114.956V24.366H114.902C114.902 22.962 115.202 21.9 115.802 21.18C116.402 20.46 117.284 20.1 118.448 20.1H118.808V22.278H118.124C117.284 22.278 116.63 22.506 116.162 22.962C115.706 23.406 115.478 24.054 115.478 24.906V30H112.976ZM123.272 30.306C122.144 30.306 121.268 29.934 120.644 29.19C120.032 28.446 119.726 27.342 119.726 25.878V20.208H122.228V26.094C122.228 26.694 122.396 27.174 122.732 27.534C123.068 27.882 123.524 28.056 124.1 28.056C124.676 28.056 125.144 27.87 125.504 27.498C125.876 27.126 126.062 26.622 126.062 25.986V20.208H128.564V30H126.584V25.842H126.782C126.782 26.826 126.656 27.648 126.404 28.308C126.152 28.968 125.774 29.466 125.27 29.802C124.766 30.138 124.136 30.306 123.38 30.306H123.272ZM131.366 30V20.226H133.868V30H131.366ZM129.998 22.098V20.226H133.868V22.098H129.998ZM132.284 19.056C131.792 19.056 131.426 18.93 131.186 18.678C130.958 18.414 130.844 18.09 130.844 17.706C130.844 17.298 130.958 16.968 131.186 16.716C131.426 16.464 131.792 16.338 132.284 16.338C132.776 16.338 133.136 16.464 133.364 16.716C133.592 16.968 133.706 17.298 133.706 17.706C133.706 18.09 133.592 18.414 133.364 18.678C133.136 18.93 132.776 19.056 132.284 19.056ZM140.46 30.126C139.56 30.126 138.816 30.012 138.228 29.784C137.652 29.544 137.22 29.148 136.932 28.596C136.644 28.032 136.5 27.276 136.5 26.328L136.518 17.472H138.858L138.84 26.49C138.84 26.97 138.966 27.342 139.218 27.606C139.482 27.858 139.854 27.984 140.334 27.984H141.864V30.126H140.46ZM134.952 22.062V20.226H141.864V22.062H134.952Z" fill="#09DE70"/>
<defs>
<clipPath id="clip0_379_4256">
<rect width="33" height="36" fill="white" transform="translate(0 6)"/>
</clipPath>
</defs>
</svg>
