<svg xmlns="http://www.w3.org/2000/svg" id="Livello_1" viewBox="0 0 198.89 71.4"><defs><style>.cls-1{fill:#4d6e87;}.cls-1,.cls-2,.cls-3,.cls-4,.cls-5{stroke-width:0px;}.cls-2{fill:#1d2347;}.cls-3{fill:#248ca8;}.cls-4{fill:#83bb26;}.cls-5{fill:#e74310;}</style></defs><path class="cls-3" d="m32.49,19.5c2.83,0,5.47.44,7.89,1.31,2.42.88,4.53,2.12,6.31,3.73L32.51,0l-14.14,24.49c1.76-1.58,3.83-2.81,6.23-3.68,2.42-.87,5.06-1.31,7.89-1.31"></path><path class="cls-4" d="m18.29,52.16c-1.77-1.67-3.17-3.68-4.17-6.05-1.01-2.36-1.53-4.98-1.53-7.85,0-1.62.17-3.14.5-4.58L0,56.35h25.48c-.29-.1-.6-.21-.89-.32-2.43-.91-4.53-2.2-6.3-3.87"></path><path class="cls-5" d="m32.4,46.55c4.51,0,8.16-3.71,8.16-8.28s-3.65-8.28-8.16-8.28-8.16,3.71-8.16,8.28,3.65,8.28,8.16,8.28"></path><polygon class="cls-2" points="59.32 50.35 69.07 50.35 69.07 56.35 52.44 56.35 52.44 21.02 59.32 21.02 59.32 50.35"></polygon><rect class="cls-2" x="75.24" y="21.03" width="6.88" height="35.33"></rect><path class="cls-2" d="m96.22,50.36h1.13c8.47,0,11.76-4.68,11.76-11.67,0-7.69-3.93-11.67-11.76-11.67h-1.13v23.33Zm-6.88-29.33h9.84c10.2,0,17.05,7.64,17.05,17.71s-7.03,17.61-17.1,17.61h-9.79V21.03Z"></path><path class="cls-2" d="m132.9,30.44h-.09l-3.89,12.84h8.39l-4.4-12.84Zm-5.95,18.46l-2.9,7.45h-7.26l13.77-36.26h5.34l13.4,36.26h-7.35l-2.72-7.45h-12.28Z"></path><polygon class="cls-2" points="161.28 56.36 154.4 56.36 154.4 26.09 147.27 26.09 147.27 20.09 168.39 20.09 168.39 26.09 161.28 26.09 161.28 56.36"></polygon><path class="cls-2" d="m182.49,30.44h-.09l-3.89,12.84h8.39l-4.4-12.84Zm-5.95,18.46l-2.9,7.45h-7.26l13.77-36.26h5.34l13.4,36.26h-7.35l-2.72-7.45h-12.28Z"></path><path class="cls-1" d="m52.44,34.53v3.54c0,.07,0,.14,0,.21,0,.09,0,.17,0,.26-.03,2.76-.53,5.3-1.51,7.59-1.01,2.36-2.42,4.37-4.2,6.05-1.79,1.67-3.9,2.96-6.32,3.87-.3.12-.6.22-.9.31h25.54l-12.6-21.82Z"></path><polygon class="cls-1" points="3.27 71.17 1.48 71.17 1.48 65.8 0 65.8 0 64.29 4.75 64.29 4.75 65.8 3.27 65.8 3.27 71.17"></polygon><polygon class="cls-1" points="13.62 66.95 13.62 64.29 15.41 64.29 15.41 71.17 13.62 71.17 13.62 68.36 11.03 68.36 11.03 71.17 9.25 71.17 9.25 64.29 11.03 64.29 11.03 66.95 13.62 66.95"></polygon><polygon class="cls-1" points="22.21 65.8 22.21 66.95 24.23 66.95 24.23 68.47 22.21 68.47 22.21 69.66 24.34 69.66 24.34 71.17 20.42 71.17 20.42 64.29 24.34 64.29 24.34 65.8 22.21 65.8"></polygon><path class="cls-1" d="m38.07,67.45h.3c.64,0,1.29,0,1.29-.84s-.6-.88-1.29-.88h-.3v1.72Zm-1.79-3.16h2.74c1.48,0,2.5.68,2.5,2.26s-.88,2.34-2.44,2.34h-1.01v2.28h-1.79v-6.88Z"></path><path class="cls-1" d="m47.68,67.61c0,1.18.88,2.05,1.94,2.05s1.95-.87,1.95-2.05c0-.94-.88-1.81-1.95-1.81s-1.94.87-1.94,1.81m5.75,0c0,2.23-1.6,3.8-3.81,3.8s-3.81-1.57-3.81-3.8c0-2.08,1.83-3.54,3.81-3.54s3.81,1.45,3.81,3.54"></path><polygon class="cls-1" points="60.44 68.74 60.46 68.74 61.91 64.29 63.33 64.29 64.68 68.74 64.7 68.74 65.98 64.29 67.86 64.29 65.65 71.17 63.83 71.17 62.63 67.18 62.61 67.18 61.25 71.17 59.44 71.17 57.38 64.29 59.25 64.29 60.44 68.74"></polygon><polygon class="cls-1" points="73.94 65.8 73.94 66.95 75.96 66.95 75.96 68.47 73.94 68.47 73.94 69.66 76.07 69.66 76.07 71.17 72.15 71.17 72.15 64.29 76.07 64.29 76.07 65.8 73.94 65.8"></polygon><path class="cls-1" d="m82.81,67.37h.17c.58,0,1.24-.1,1.24-.85s-.66-.85-1.24-.85h-.17v1.71Zm3.94,3.8h-2.23l-1.69-2.65h-.02v2.65h-1.79v-6.88h2.68c1.36,0,2.39.64,2.39,2.11,0,.95-.52,1.78-1.51,1.95l2.17,2.82Z"></path><path class="cls-1" d="m99.58,67.61c0,1.18.88,2.05,1.94,2.05s1.95-.87,1.95-2.05c0-.94-.88-1.81-1.95-1.81s-1.94.87-1.94,1.81m5.75,0c0,2.23-1.6,3.8-3.81,3.8s-3.81-1.57-3.81-3.8c0-2.08,1.83-3.54,3.81-3.54s3.81,1.45,3.81,3.54"></path><polygon class="cls-1" points="111.8 65.8 111.8 66.95 113.76 66.95 113.76 68.47 111.8 68.47 111.8 71.17 110 71.17 110 64.29 113.96 64.29 113.96 65.8 111.8 65.8"></polygon><path class="cls-1" d="m127.58,67.45h.3c.64,0,1.29,0,1.29-.84s-.6-.88-1.29-.88h-.3v1.72Zm-1.79-3.16h2.74c1.48,0,2.5.68,2.5,2.26s-.88,2.34-2.44,2.34h-1.01v2.28h-1.79v-6.88Z"></path><rect class="cls-1" x="135.66" y="64.29" width="1.79" height="6.88"></rect><path class="cls-1" d="m143.99,67.61c0,1.18.88,2.05,1.94,2.05s1.95-.87,1.95-2.05c0-.94-.88-1.81-1.95-1.81s-1.94.87-1.94,1.81m5.75,0c0,2.23-1.6,3.8-3.81,3.8s-3.81-1.57-3.81-3.8c0-2.08,1.83-3.54,3.81-3.54s3.81,1.45,3.81,3.54"></path><polygon class="cls-1" points="154.42 64.29 156.21 64.29 159.49 68.5 159.51 68.5 159.51 64.29 161.3 64.29 161.3 71.17 159.51 71.17 156.23 66.96 156.21 66.96 156.21 71.17 154.42 71.17 154.42 64.29"></polygon><polygon class="cls-1" points="168.1 65.8 168.1 66.95 170.12 66.95 170.12 68.47 168.1 68.47 168.1 69.66 170.23 69.66 170.23 71.17 166.31 71.17 166.31 64.29 170.23 64.29 170.23 65.8 168.1 65.8"></polygon><polygon class="cls-1" points="176.97 65.8 176.97 66.95 178.99 66.95 178.99 68.47 176.97 68.47 176.97 69.66 179.1 69.66 179.1 71.17 175.18 71.17 175.18 64.29 179.1 64.29 179.1 65.8 176.97 65.8"></polygon><path class="cls-1" d="m185.84,67.37h.17c.58,0,1.24-.1,1.24-.85s-.66-.85-1.24-.85h-.17v1.71Zm3.94,3.8h-2.23l-1.69-2.65h-.02v2.65h-1.79v-6.88h2.68c1.36,0,2.39.64,2.39,2.11,0,.95-.52,1.78-1.51,1.95l2.17,2.82Z"></path><path class="cls-1" d="m197.89,66.06c-.33-.28-.74-.46-1.18-.46-.33,0-.77.19-.77.58s.49.55.79.65l.46.14c.96.28,1.7.76,1.7,1.88,0,.68-.16,1.39-.71,1.84-.54.46-1.25.65-1.96.65-.87,0-1.72-.29-2.42-.78l.77-1.45c.44.4.97.71,1.59.71.42,0,.86-.21.86-.69s-.7-.67-1.09-.79c-1.11-.32-1.86-.61-1.86-1.94,0-1.4,1-2.32,2.38-2.32.7,0,1.54.22,2.15.57l-.71,1.39Z"></path></svg>